<svg xmlns="http://www.w3.org/2000/svg" width="1279" height="791" viewBox="0 0 1279 791"><rect width="100%" height="100%" fill="#ebedec"/><path fill="#ebedec" d="M312.96 436.445h19.5v13.88h-60v-13.88h21.97v-63.22q0-3.75.22-7.73l-15.59 13.06q-1.35 1.05-2.67 1.31-1.31.26-2.47.04-1.16-.23-2.07-.79-.89-.56-1.34-1.24l-5.86-8.02 33.08-28.13h15.23v94.72Zm74.62-3.37h27.82q3 0 4.77 1.69 1.76 1.68 1.76 4.46v11.1h-74.4v-6.15q0-1.88.79-3.94.78-2.06 2.51-3.71l32.93-33q4.12-4.2 7.38-8.02 3.26-3.83 5.44-7.58 2.18-3.75 3.34-7.61 1.16-3.87 1.16-8.14 0-3.9-1.12-6.86-1.13-2.96-3.19-4.99-2.06-2.02-4.95-3.04-2.89-1.01-6.49-1.01-3.3 0-6.11.94-2.82.94-4.99 2.62-2.17 1.69-3.67 3.94t-2.25 4.95q-1.28 3.45-3.3 4.58-2.03 1.12-5.86.52l-9.75-1.72q1.13-7.8 4.36-13.69 3.22-5.89 8.06-9.83 4.83-3.93 11.1-5.92 6.26-1.99 13.46-1.99 7.5 0 13.73 2.21 6.22 2.22 10.65 6.27 4.42 4.04 6.89 9.75 2.48 5.7 2.48 12.67 0 6-1.76 11.1-1.77 5.1-4.73 9.75-2.96 4.65-6.93 9-3.98 4.35-8.33 8.85l-24.45 24.98q3.53-1.06 7.01-1.62 3.49-.56 6.64-.56Zm48.23-91.2h74.92v8.03q0 3.59-.75 5.81-.75 2.21-1.5 3.71l-41.1 84.6q-1.27 2.63-3.6 4.46-2.32 1.84-6.22 1.84h-13.43l41.93-82.88q1.42-2.54 2.81-4.68 1.39-2.14 3.11-4.09h-51.9q-1.72 0-3-1.27-1.27-1.28-1.27-3v-12.53Zm104.77 32.55q0 9.07 4.69 13.84 4.69 4.76 13.31 4.76 4.5 0 8.03-1.42 3.52-1.43 5.92-3.91 2.4-2.47 3.64-5.84 1.24-3.38 1.24-7.28 0-4.42-1.35-7.91t-3.83-5.89q-2.47-2.4-5.89-3.67-3.41-1.28-7.46-1.28-4.2 0-7.57 1.39-3.38 1.39-5.78 3.86-2.4 2.48-3.67 5.89-1.28 3.41-1.28 7.46Zm-9.07 75.9 33.67-42.07q1.28-1.58 2.4-3.08 1.13-1.5 2.18-3-3.75 2.4-8.25 3.64-4.5 1.24-9.45 1.24-5.63 0-11.03-1.96-5.4-1.94-9.6-5.88-4.2-3.94-6.79-9.75-2.58-5.81-2.58-13.61 0-7.28 2.7-13.66 2.7-6.37 7.57-11.17 4.88-4.8 11.7-7.58 6.83-2.77 15.08-2.77 8.32 0 14.96 2.63 6.64 2.62 11.32 7.35 4.69 4.72 7.2 11.32 2.52 6.6 2.52 14.47 0 5.03-.87 9.53-.86 4.5-2.43 8.66-1.58 4.17-3.83 8.14-2.25 3.98-5.02 7.88l-24.83 35.4q-1.27 1.79-3.82 3.03-2.55 1.24-5.78 1.24h-17.02Zm186.67-24.82-9.82 9.67-25.43-25.42-25.65 25.57-9.82-9.68 25.65-25.72-24.45-24.45 9.75-9.75 24.45 24.45 24.3-24.3 9.9 9.75-24.38 24.38 25.5 25.5Zm51.52-83.63h74.93v8.03q0 3.59-.75 5.81-.75 2.21-1.5 3.71l-41.1 84.6q-1.28 2.63-3.6 4.46-2.33 1.84-6.23 1.84h-13.42l41.92-82.88q1.43-2.54 2.82-4.68 1.39-2.14 3.11-4.09h-51.9q-1.73 0-3-1.27-1.28-1.28-1.28-3v-12.53Zm104.78 32.55q0 9.07 4.69 13.84 4.68 4.76 13.31 4.76 4.5 0 8.02-1.42 3.53-1.43 5.93-3.91 2.4-2.47 3.64-5.84 1.23-3.38 1.23-7.28 0-4.42-1.35-7.91t-3.82-5.89q-2.47-2.4-5.89-3.67-3.41-1.28-7.46-1.28-4.2 0-7.58 1.39-3.37 1.39-5.77 3.86-2.4 2.48-3.68 5.89-1.27 3.41-1.27 7.46Zm-9.07 75.9 33.67-42.07q1.27-1.58 2.4-3.08 1.12-1.5 2.18-3-3.75 2.4-8.25 3.64-4.5 1.24-9.46 1.24-5.62 0-11.02-1.96-5.4-1.94-9.6-5.88-4.2-3.94-6.79-9.75-2.59-5.81-2.59-13.61 0-7.28 2.71-13.66 2.69-6.37 7.57-11.17 4.87-4.8 11.7-7.58 6.82-2.77 15.07-2.77 8.33 0 14.97 2.63 6.63 2.62 11.32 7.35 4.69 4.72 7.2 11.32 2.51 6.6 2.51 14.47 0 5.03-.86 9.53-.86 4.5-2.44 8.66-1.57 4.17-3.82 8.14-2.25 3.98-5.03 7.88l-24.82 35.4q-1.28 1.79-3.83 3.03-2.54 1.24-5.77 1.24h-17.02Zm129.44-13.88h19.5v13.88h-60v-13.88h21.98v-63.22q0-3.75.22-7.73l-15.59 13.06q-1.36 1.05-2.67 1.31-1.31.26-2.47.04-1.16-.23-2.07-.79-.9-.56-1.34-1.24l-5.86-8.02 33.08-28.13h15.22v94.72Z"/></svg>