<svg xmlns="http://www.w3.org/2000/svg" width="1279" height="815" viewBox="0 0 1279 815"><rect width="100%" height="100%" fill="#c8c7cd"/><path fill="#c8c7cd" d="M312.43 447.845h19.5v13.88h-60v-13.88h21.97v-63.22q0-3.75.22-7.73l-15.59 13.06q-1.35 1.05-2.67 1.31-1.31.26-2.47.04-1.16-.23-2.07-.79-.89-.56-1.34-1.24l-5.86-8.02 33.08-28.13h15.23v94.72Zm74.62-3.37h27.82q3 0 4.77 1.69 1.76 1.68 1.76 4.46v11.1H347v-6.15q0-1.88.79-3.94.78-2.06 2.51-3.71l32.93-33q4.12-4.2 7.38-8.02 3.26-3.83 5.44-7.58 2.18-3.75 3.34-7.61 1.16-3.87 1.16-8.14 0-3.9-1.12-6.86-1.13-2.96-3.19-4.99-2.06-2.02-4.95-3.04-2.89-1.01-6.49-1.01-3.3 0-6.11.94-2.82.94-4.99 2.62-2.17 1.69-3.67 3.94t-2.25 4.95q-1.28 3.45-3.3 4.58-2.03 1.12-5.86.52l-9.75-1.72q1.13-7.8 4.36-13.69 3.22-5.89 8.06-9.83 4.83-3.93 11.1-5.92 6.26-1.99 13.46-1.99 7.5 0 13.73 2.21 6.22 2.22 10.65 6.27 4.42 4.04 6.89 9.75 2.48 5.7 2.48 12.67 0 6-1.76 11.1-1.77 5.1-4.73 9.75-2.96 4.65-6.93 9-3.98 4.35-8.33 8.85l-24.45 24.98q3.53-1.06 7.01-1.62 3.49-.56 6.64-.56Zm48.23-91.2h74.92v8.03q0 3.59-.75 5.81-.75 2.21-1.5 3.71l-41.1 84.6q-1.27 2.63-3.6 4.46-2.32 1.84-6.22 1.84H443.6l41.93-82.88q1.42-2.54 2.81-4.68 1.39-2.14 3.11-4.09h-51.9q-1.72 0-3-1.27-1.27-1.28-1.27-3v-12.53Zm104.77 32.55q0 9.07 4.69 13.84 4.69 4.76 13.31 4.76 4.5 0 8.03-1.42 3.52-1.43 5.92-3.91 2.4-2.47 3.64-5.84 1.24-3.38 1.24-7.28 0-4.42-1.35-7.91t-3.83-5.89q-2.47-2.4-5.89-3.67-3.41-1.28-7.46-1.28-4.2 0-7.57 1.39-3.38 1.39-5.78 3.86-2.4 2.48-3.67 5.89-1.28 3.41-1.28 7.46Zm-9.07 75.9 33.67-42.07q1.28-1.58 2.4-3.08 1.13-1.5 2.18-3-3.75 2.4-8.25 3.64-4.5 1.24-9.45 1.24-5.63 0-11.03-1.96-5.4-1.94-9.6-5.88-4.2-3.94-6.79-9.75-2.58-5.81-2.58-13.61 0-7.28 2.7-13.66 2.7-6.37 7.57-11.17 4.88-4.8 11.7-7.58 6.83-2.77 15.08-2.77 8.32 0 14.96 2.63 6.64 2.62 11.32 7.35 4.69 4.72 7.2 11.32 2.52 6.6 2.52 14.47 0 5.03-.87 9.53-.86 4.5-2.43 8.66-1.58 4.17-3.83 8.14-2.25 3.98-5.02 7.88l-24.83 35.4q-1.27 1.79-3.82 3.03-2.55 1.24-5.78 1.24h-17.02Zm186.67-24.82-9.82 9.67-25.43-25.42-25.65 25.57-9.82-9.68 25.65-25.72-24.45-24.45 9.75-9.75 24.45 24.45 24.3-24.3 9.9 9.75-24.38 24.38 25.5 25.5Zm88.05 11.54q4.57 0 8.02-1.31 3.45-1.31 5.82-3.63 2.36-2.33 3.56-5.55 1.2-3.23 1.2-6.98 0-8.92-4.95-13.5-4.95-4.57-13.65-4.57t-13.65 4.57q-4.95 4.58-4.95 13.5 0 3.75 1.2 6.98 1.2 3.22 3.56 5.55 2.36 2.32 5.81 3.63 3.46 1.31 8.03 1.31Zm0-82.42q-4.13 0-7.13 1.28-3 1.27-4.98 3.41-1.99 2.13-2.93 4.91-.94 2.77-.94 5.85 0 3.23.79 6.26.79 3.04 2.66 5.4 1.88 2.37 4.96 3.79 3.07 1.42 7.57 1.42t7.57-1.42q3.08-1.42 4.95-3.79 1.88-2.36 2.67-5.4.78-3.03.78-6.26 0-3.08-.97-5.85-.98-2.78-2.93-4.91-1.95-2.14-4.95-3.41-3-1.28-7.12-1.28Zm18.3 39.15q9.9 3.23 14.63 9.86 4.72 6.64 4.72 16.24 0 7.2-2.74 13.05-2.73 5.85-7.69 9.98-4.95 4.12-11.88 6.37-6.94 2.25-15.34 2.25-8.4 0-15.34-2.25-6.94-2.25-11.89-6.37-4.95-4.13-7.68-9.98-2.74-5.85-2.74-13.05 0-9.6 4.72-16.24 4.73-6.63 14.63-9.86-7.88-3.3-11.81-9.37-3.94-6.08-3.94-14.63 0-6.15 2.51-11.47 2.51-5.33 7.01-9.27 4.5-3.93 10.77-6.15 6.26-2.21 13.76-2.21t13.76 2.21q6.26 2.22 10.76 6.15 4.5 3.94 7.02 9.27 2.51 5.32 2.51 11.47 0 8.55-3.94 14.63-3.93 6.07-11.81 9.37Zm83.32 42.67h19.5v13.88h-60v-13.88h21.98v-63.22q0-3.75.22-7.73l-15.6 13.06q-1.35 1.05-2.66 1.31t-2.47.04q-1.16-.23-2.07-.79-.9-.56-1.34-1.24l-5.86-8.02 33.08-28.13h15.22v94.72Zm63.15-77.77-3.82 22.57q3.6-.75 6.9-1.08 3.3-.34 6.38-.34 8.54 0 15.07 2.55 6.52 2.55 10.95 7.05t6.68 10.54q2.25 6.04 2.25 13.01 0 8.63-3.04 15.75-3.04 7.13-8.44 12.19-5.4 5.06-12.79 7.84-7.39 2.77-16.09 2.77-5.09 0-9.67-1.05t-8.59-2.81q-4.01-1.76-7.42-4.05t-6.12-4.84l5.71-7.88q1.79-2.54 4.72-2.54 1.87 0 3.82 1.2 1.96 1.2 4.47 2.62 2.51 1.43 5.92 2.63t8.21 1.2q5.11 0 9-1.65 3.9-1.66 6.49-4.62 2.59-2.96 3.9-7.05 1.31-4.08 1.31-8.88 0-8.86-5.13-13.84-5.14-4.99-15.19-4.99-7.73 0-15.82 2.85l-11.56-3.3 9-52.65h53.56v7.87q0 3.98-2.48 6.45-2.48 2.48-8.4 2.48h-29.78Z"/></svg>