<svg xmlns="http://www.w3.org/2000/svg" width="193" height="189" viewBox="0 0 193 189"><rect width="100%" height="100%" fill="#aeb7b3"/><path fill="#ebedec" d="M47.295 101.49h3.38v2.41h-10.4v-2.41h3.81V90.54q0-.65.03-1.34l-2.7 2.26q-.23.18-.46.23-.23.04-.43 0-.2-.04-.36-.13-.15-.1-.23-.22l-1.01-1.39 5.73-4.87h2.64v16.41Zm9.29-10.75q0 1.58.81 2.4.82.83 2.31.83.78 0 1.39-.25.61-.25 1.03-.68.42-.42.63-1.01.22-.58.22-1.26 0-.77-.24-1.37-.23-.61-.66-1.02-.43-.42-1.02-.64-.59-.22-1.3-.22-.72 0-1.31.24-.58.24-1 .67-.42.43-.64 1.02-.22.59-.22 1.29Zm-1.57 13.16 5.84-7.29q.22-.28.41-.54.2-.26.38-.52-.65.42-1.43.63-.78.22-1.64.22-.97 0-1.91-.34t-1.66-1.02q-.73-.68-1.18-1.69-.45-1.01-.45-2.36 0-1.26.47-2.37.47-1.1 1.31-1.93.85-.83 2.03-1.32 1.18-.48 2.61-.48 1.45 0 2.6.46 1.15.45 1.96 1.27.81.82 1.25 1.97.43 1.14.43 2.5 0 .88-.15 1.66-.15.78-.42 1.5t-.66 1.41q-.39.69-.87 1.36l-4.31 6.14q-.22.31-.66.53-.44.21-1 .21h-2.95Zm15.46-13.26-1.69-.3q.19-1.35.75-2.37t1.4-1.7q.84-.69 1.92-1.03 1.09-.35 2.33-.35 1.31 0 2.35.37 1.05.37 1.79 1.03t1.14 1.54q.39.89.39 1.91 0 .9-.2 1.58t-.58 1.19q-.37.51-.93.86t-1.26.58q1.69.54 2.52 1.63.83 1.09.83 2.74 0 1.41-.52 2.49-.52 1.07-1.4 1.81-.89.73-2.05 1.11-1.16.38-2.46.38-1.42 0-2.47-.33-1.06-.32-1.84-.96-.78-.64-1.32-1.56-.55-.92-.94-2.13l1.42-.59q.56-.23 1.04-.12.49.11.71.53.24.45.52.89.28.45.67.79t.91.56q.53.21 1.26.21.82 0 1.43-.26.61-.27 1.02-.7.41-.43.61-.95.2-.53.2-1.06 0-.68-.14-1.23-.15-.55-.6-.94-.46-.39-1.31-.62-.85-.22-2.28-.22v-2.28q1.18-.02 1.96-.23.78-.2 1.24-.57.47-.37.65-.89.18-.52.18-1.15 0-1.32-.74-2.01-.74-.69-1.98-.69-.57 0-1.05.16-.48.16-.86.46-.39.29-.65.68-.26.39-.39.86-.22.59-.58.79-.35.19-1 .09Zm31.98 8.96-1.71 1.67-4.4-4.4-4.45 4.43-1.7-1.68 4.44-4.46-4.23-4.23 1.69-1.69 4.23 4.23 4.22-4.21 1.71 1.69-4.22 4.23 4.42 4.42Zm17.79 1.89h3.38v2.41h-10.4v-2.41h3.81V90.54q0-.65.04-1.34l-2.7 2.26q-.24.18-.46.23-.23.04-.43 0-.2-.04-.36-.13-.16-.1-.23-.22l-1.02-1.39 5.73-4.87h2.64v16.41Zm12.55.11q.79 0 1.39-.23.6-.23 1.01-.63.41-.4.61-.96.21-.56.21-1.21 0-1.55-.86-2.34-.85-.79-2.36-.79-1.51 0-2.37.79-.86.79-.86 2.34 0 .65.21 1.21.21.56.62.96.41.4 1.01.63.6.23 1.39.23Zm0-14.29q-.72 0-1.24.22t-.86.59q-.35.37-.51.86-.16.48-.16 1.01 0 .56.14 1.09.13.52.46.93.32.41.86.66.53.24 1.31.24t1.31-.24q.53-.25.86-.66.32-.41.46-.93.14-.53.14-1.09 0-.53-.17-1.01-.17-.49-.51-.86-.34-.37-.86-.59-.52-.22-1.23-.22Zm3.17 6.79q1.72.56 2.54 1.71.81 1.15.81 2.81 0 1.25-.47 2.26-.47 1.02-1.33 1.73-.86.72-2.06 1.11-1.21.39-2.66.39-1.46 0-2.66-.39-1.2-.39-2.06-1.11-.86-.71-1.33-1.73-.48-1.01-.48-2.26 0-1.66.82-2.81.82-1.15 2.54-1.71-1.37-.57-2.05-1.63-.68-1.05-.68-2.53 0-1.07.43-1.99.44-.92 1.22-1.61.78-.68 1.86-1.06 1.09-.39 2.39-.39t2.38.39q1.09.38 1.87 1.06.78.69 1.21 1.61.44.92.44 1.99 0 1.48-.68 2.53-.68 1.06-2.05 1.63Zm8.66-3.36q0 1.58.81 2.4.81.83 2.31.83.78 0 1.39-.25.61-.25 1.03-.68.41-.42.63-1.01.21-.58.21-1.26 0-.77-.23-1.37-.24-.61-.67-1.02-.42-.42-1.02-.64-.59-.22-1.29-.22-.73 0-1.31.24-.59.24-1 .67-.42.43-.64 1.02-.22.59-.22 1.29Zm-1.57 13.16 5.83-7.29q.22-.28.42-.54l.38-.52q-.65.42-1.43.63-.78.22-1.64.22-.98 0-1.91-.34-.94-.34-1.67-1.02-.73-.68-1.17-1.69-.45-1.01-.45-2.36 0-1.26.47-2.37.46-1.1 1.31-1.93.84-.83 2.03-1.32 1.18-.48 2.61-.48 1.44 0 2.59.46 1.15.45 1.97 1.27.81.82 1.24 1.97.44 1.14.44 2.5 0 .88-.15 1.66-.15.78-.42 1.5-.28.72-.67 1.41t-.87 1.36l-4.3 6.14q-.22.31-.66.53-.44.21-1 .21h-2.95Z"/></svg>