<svg xmlns="http://www.w3.org/2000/svg" width="256" height="147" viewBox="0 0 256 147"><rect width="100%" height="100%" fill="#ddd"/><path d="M61.02 81.88h6.3q.68 0 1.08.38t.4 1.01v2.52H51.94V84.4q0-.43.18-.9.18-.46.57-.84l7.46-7.48q.94-.95 1.68-1.82.73-.86 1.23-1.71.49-.85.75-1.73.27-.88.27-1.84 0-.89-.26-1.56-.25-.67-.72-1.13-.47-.46-1.12-.69-.66-.23-1.47-.23-.75 0-1.39.21-.64.22-1.13.6-.49.38-.83.89-.34.51-.51 1.12-.29.79-.75 1.04-.46.26-1.33.12l-2.21-.39q.26-1.77.99-3.1.73-1.34 1.83-2.23 1.09-.89 2.51-1.34 1.42-.45 3.06-.45 1.7 0 3.11.5t2.41 1.42q1 .91 1.56 2.21.57 1.29.57 2.87 0 1.36-.4 2.52-.4 1.15-1.07 2.21-.68 1.05-1.58 2.04-.9.98-1.88 2l-5.55 5.66q.8-.24 1.59-.36.79-.13 1.51-.13Zm17.12-16.86-.87 5.11q.82-.17 1.56-.24.75-.08 1.45-.08 1.94 0 3.42.58 1.47.58 2.48 1.6 1 1.02 1.51 2.38.51 1.37.51 2.95 0 1.96-.69 3.57-.69 1.62-1.91 2.77-1.22 1.14-2.9 1.77-1.67.63-3.65.63-1.15 0-2.19-.24-1.04-.23-1.94-.63-.91-.4-1.69-.92-.77-.52-1.38-1.1l1.29-1.78q.41-.58 1.07-.58.42 0 .87.27.44.27 1.01.6.57.32 1.34.59.77.27 1.86.27 1.16 0 2.04-.37.89-.38 1.47-1.05.59-.67.89-1.59.29-.93.29-2.02 0-2.01-1.16-3.14-1.16-1.13-3.44-1.13-1.75 0-3.59.65l-2.62-.75 2.04-11.93h12.14v1.78q0 .9-.56 1.46-.56.57-1.9.57h-6.75Zm28.11-3.81-7.29 8.92-.85 1.06q.72-.36 1.54-.56.82-.19 1.78-.19 1.39 0 2.71.46t2.32 1.38q1 .93 1.61 2.31.62 1.37.62 3.21 0 1.72-.63 3.22-.63 1.51-1.77 2.63-1.14 1.12-2.75 1.77-1.6.64-3.54.64-1.97 0-3.54-.63-1.56-.63-2.67-1.76-1.1-1.13-1.69-2.72-.58-1.59-.58-3.52 0-1.74.7-3.57.71-1.82 2.19-3.8l5.86-7.87q.31-.4.89-.69.59-.29 1.35-.29h3.74Zm-6.34 21.42q1.01 0 1.85-.34.84-.34 1.44-.95.61-.62.95-1.44.34-.83.34-1.79 0-1.06-.33-1.9-.32-.84-.91-1.43-.6-.58-1.43-.89-.84-.31-1.84-.31t-1.82.34q-.81.34-1.39.95-.58.6-.9 1.43-.33.82-.33 1.77 0 1.02.29 1.86.28.84.83 1.44.55.59 1.37.93.81.33 1.88.33Zm36.04-2.47-2.22 2.2-5.77-5.77-5.81 5.8-2.23-2.19 5.82-5.83-5.55-5.55 2.21-2.21 5.55 5.55 5.5-5.51 2.25 2.21-5.53 5.52 5.78 5.78Zm23.28 2.48h4.42v3.15h-13.6v-3.15h4.98V68.31q0-.85.05-1.75l-3.54 2.96q-.3.24-.6.3t-.56.01q-.27-.05-.47-.18-.2-.13-.31-.28l-1.32-1.82 7.5-6.38h3.45v21.47Zm11.17-6.12h7.48v-8.04q0-1.14.15-2.51l-7.63 10.55Zm11.13 0h3.1v2.44q0 .34-.23.58-.22.25-.63.25h-2.24v6h-3.65v-6h-10.37q-.43 0-.75-.26-.33-.27-.41-.66l-.44-2.12 11.64-15.56h3.98v15.33Zm5.54-15.31h16.99v1.82q0 .81-.17 1.31-.17.51-.34.85l-9.32 19.17q-.29.6-.82 1.01-.52.42-1.41.42h-3.04l9.5-18.79q.33-.57.64-1.06.31-.48.71-.92h-11.77q-.39 0-.68-.29-.29-.29-.29-.68v-2.84Z"/></svg>